# xmcd
#
# Track frame offsets: 
#        150
#        2518
#        16400
#        30656
#        45330
#        47167
#        62141
#        64840
#        80918
#        83238
#        98922
#        111574
#        116798
#        133392
#        147876
#        163482
#        178191
#        242107
#        258182
#        273432
#        289253
#
# Disc length: 4047 seconds
#
# Revision: 0
# Processed by: cddbd v1.5.2PL0 Copyright (c) Steve Scherf et al.
# Submitted via: ExactAudioCopy v0.95b3
#
DISCID=3d0fcd15
DTITLE=The Beatles  - Sgt Pepper Deluxe - 08 - Disc 3 - sessions.m3u
DYEAR=1900
DGENRE=
TTITLE0=Strawberry Fields Forever - rehearsa
TTITLE1=Strawberry Fields Forever - take 1
TTITLE2=Strawberry Fields Forever - take 1+overdubs
TTITLE3=Strawberry Fields Forever - take 2
TTITLE4=Strawberry Fields Forever - take 3
TTITLE5=Strawberry Fields Forever - take 4
TTITLE6=Strawberry Fields Forever - take 5
TTITLE7=Strawberry Fields Forever - take 6
TTITLE8=Strawberry Fields Forever - rehearsals
TTITLE9=Strawberry Fields Forever - take 7
TTITLE10=When I'm 64 - take 4
TTITLE11=Strawberry Fields Forever - drums
TTITLE12=Strawberry Fields Forever - take 25
TTITLE13=Strawberry Fields Forever - take 26 RM9
TTITLE14=Strawberry Fields Forever - take 26
TTITLE15=Penny Lane - take 9
TTITLE16=Penny Lane - session
TTITLE17=Strawberry Fields Forever - take 25 monitor mix
TTITLE18=Strawberry Fields Forever - take 26 monitor mix
TTITLE19=Strawberry Fields Forever - take 7 RM3
TTITLE20=Penny Lane - RM8
EXTD=
EXTT0=
EXTT1=
EXTT2=
EXTT3=
EXTT4=
EXTT5=
EXTT6=
EXTT7=
EXTT8=
EXTT9=
EXTT10=
EXTT11=
EXTT12=
EXTT13=
EXTT14=
EXTT15=
EXTT16=
EXTT17=
EXTT18=
EXTT19=
EXTT20=
PLAYORDER=
